# xmcd
#
# Track frame offsets:
#	150
#	17486
#	30901
#	48910
#	66962
#	85315
#	98146
#	115732
#	145437
#	172124
#	193290
#	221808
#	243682
#	259903
#	278806
#	295248
#	310795
#	328375
#
# Disc length: 4600 seconds
#
# Revision: 0
# Processed by: cddbd v1.4PL0 Copyright (c) Steve Scherf et al.
# Submitted via: audiograbber 1.82.02
#
DISCID=1711f612
DTITLE=Bryan Adams - DeLuxe Collection
DYEAR=2002
DGENRE=Pop
TTITLE0=Here I am
TTITLE1=You can't take me
TTITLE2=Brothers under Sun
TTITLE3=I will always return
TTITLE4=Don't let go
TTITLE5=Get off my back
TTITLE6=Nothing I've ever known
TTITLE7=I do it for You
TTITLE8=Please forgive me
TTITLE9=All for love
TTITLE10=Let's make a night to remember
TTITLE11=Have you ever really loved a woman
TTITLE12=The best of me
TTITLE13=Cloud #9
TTITLE14=The only thing that looks good on me is You
TTITLE15=When You're gone
TTITLE16=Run to You
TTITLE17=Don't give it up
EXTD=
EXTT0=
EXTT1=
EXTT2=
EXTT3=
EXTT4=
EXTT5=
EXTT6=
EXTT7=
EXTT8=
EXTT9=
EXTT10=
EXTT11=
EXTT12=
EXTT13=
EXTT14=
EXTT15=
EXTT16=
EXTT17=
PLAYORDER=
